<?xml version="1.0" encoding="UTF-8"?>
<svg width="13.759mm" height="13.758mm" version="1.1" viewBox="0 0 13.759 13.758" xmlns="http://www.w3.org/2000/svg">
 <g transform="translate(-92.151 -177.48)">
  <path d="m99.029 177.48c-3.7984 0-6.8787 3.1579-6.8787 7.0538 0 3.1159 1.9709 5.7597 4.7046 6.6924 0.34397 0.0648 0.46949-0.15309 0.46949-0.33992 0-0.16745-0.0058-0.61104-0.0091-1.1996-1.9137 0.42631-2.3174-0.94546-2.3174-0.94546-0.31278-0.81483-0.76384-1.0319-0.76384-1.0319-0.62462-0.43761 0.04725-0.42873 0.04725-0.42873 0.69045 0.0499 1.0538 0.72698 1.0538 0.72698 0.61359 1.0777 1.6099 0.76655 2.0019 0.58601 0.06253-0.45585 0.24034-0.7667 0.43689-0.94288-1.5277-0.17811-3.1335-0.78318-3.1335-3.486 0-0.76994 0.26805-1.3997 0.70809-1.8927-0.07087-0.17844-0.30696-0.89558 0.06741-1.8666 0 0 0.57753-0.18973 1.8917 0.72295 0.54871-0.15647 1.1373-0.23463 1.7222-0.23738 0.5843 3e-3 1.1727 0.0809 1.7222 0.23738 1.3135-0.91268 1.8899-0.72295 1.8899-0.72295 0.37531 0.97098 0.13923 1.6881 0.0685 1.8666 0.44083 0.493 0.70715 1.1228 0.70715 1.8927 0 2.7096-1.6085 3.3058-3.1409 3.4805 0.24695 0.21768 0.46697 0.64818 0.46697 1.306 0 0.94305-8e-3 1.7038-8e-3 1.935 0 0.18861 0.12395 0.40806 0.47311 0.33911 2.7311-0.93448 4.7004-3.5765 4.7004-6.6916 0-3.8959-3.0803-7.0538-6.8796-7.0538" fill="#fff" fill-rule="evenodd"/>
 </g>
</svg>
