<?xml version="1.0" encoding="UTF-8"?>
<svg width="13.758mm" height="13.758mm" version="1.1" viewBox="0 0 13.758 13.758" xmlns="http://www.w3.org/2000/svg">
 <defs>
  <clipPath id="clipPath186">
   <path d="m0 1534.6h2728.6v-1534.6h-2728.6z"/>
  </clipPath>
 </defs>
 <g transform="translate(-49.061 -182.78)">
  <g transform="matrix(.16221 0 0 -.16221 -178.82 290.37)">
   <g clip-path="url(#clipPath186)">
    <g transform="translate(1470.5 624.79)">
     <path d="m0 0c-2.205-6.759-5.739-12.793-9.765-18.519-1.352-1.923-2.761-3.811-4.196-5.681-1.275-1.665-2.568-3.316-3.863-4.963-1.688-2.152-3.373-4.3-5.002-6.465h-0.695c-1.651 2.139-3.347 4.267-5.037 6.404-1.296 1.639-2.593 3.286-3.865 4.948-1.443 1.886-2.859 3.792-4.218 5.734-3.855 5.513-7.249 11.318-9.503 17.747-4.17 13.497 7.64 27.987 21.334 28.68h3.174c13.399-0.693 25.009-14.489 21.636-27.885m-23.202 38.538c-23.423 0-42.41-18.987-42.41-42.409s18.987-42.41 42.41-42.41c23.422 0 42.409 18.988 42.409 42.41s-18.987 42.409-42.409 42.409" fill="#fff"/>
    </g>
    <g transform="translate(1446.7 639.35)">
     <path d="m0 0c-5.484 0-9.932-4.447-9.932-9.933 0-5.485 4.448-9.933 9.932-9.933 5.485 0 9.934 4.448 9.934 9.933 0 5.486-4.449 9.933-9.934 9.933" fill="#fff"/>
    </g>
   </g>
  </g>
 </g>
</svg>
