<?xml version="1.0" encoding="UTF-8"?>
<svg width="13.758mm" height="13.758mm" version="1.1" viewBox="0 0 13.758 13.758" xmlns="http://www.w3.org/2000/svg">
 <defs>
  <clipPath id="clipPath166">
   <path d="m0 1534.6h2728.6v-1534.6h-2728.6z"/>
  </clipPath>
 </defs>
 <g transform="translate(-112.56 -78.454)">
  <g transform="matrix(.16188 0 0 -.16189 -114.91 210.15)">
   <g clip-path="url(#clipPath166)">
    <g transform="translate(1472.7 749.49)">
     <path d="m0 0h-48.848v35.736l22.517-17.079c0.604-0.462 1.497-0.691 2.217-0.691 0.737 0 1.378 0.24 1.989 0.724l22.125 17.599zm-2.245 43.023-21.823-17.252-22.532 17.252zm-22.851 20.982c-23.467 0-42.493-19.025-42.493-42.492 0-23.47 19.026-42.495 42.493-42.495 23.469 0 42.495 19.025 42.495 42.495 0 23.467-19.026 42.492-42.495 42.492" fill="#fff"/>
    </g>
   </g>
  </g>
 </g>
</svg>
