<?xml version="1.0" encoding="UTF-8"?>
<svg width="13.758mm" height="13.758mm" version="1.1" viewBox="0 0 13.758 13.758" xmlns="http://www.w3.org/2000/svg">
 <defs>
  <clipPath id="clipPath134">
   <path d="m0 1534.6h2728.6v-1534.6h-2728.6z"/>
  </clipPath>
 </defs>
 <g transform="translate(-120.88 -107.18)">
  <g transform="matrix(.16236 0 0 -.16236 -23.366 214.81)">
   <g clip-path="url(#clipPath134)">
    <g transform="translate(942.86 636.01)">
     <path d="m0 0-25.954-16.093c-0.457-0.286-0.664-0.843-0.506-1.355l3.482-11.216c0.073-0.239 0.417-0.203 0.446 0.042l0.845 7.523c0.031 0.292 0.172 0.557 0.392 0.752l21.976 19.431c0.528 0.47-0.085 1.289-0.681 0.916" fill="#fff"/>
    </g>
    <g transform="translate(952.74 640.89)">
     <path d="m0 0-8.079-38.616c-0.377-1.814-2.503-2.627-3.996-1.535l-12.197 8.957-6.216-6.35c-1.09-1.112-2.976-0.662-3.444 0.824l-4.486 14.238-12.023 3.548c-1.58 0.469-1.671 2.667-0.138 3.266l47.313 18.436c1.799 0.701 3.662-0.873 3.266-2.768m-21.948 21.991c-23.4 0-42.37-18.97-42.37-42.37s18.97-42.37 42.37-42.37 42.37 18.97 42.37 42.37-18.97 42.37-42.37 42.37" fill="#fff"/>
    </g>
   </g>
  </g>
 </g>
</svg>
