<?xml version="1.0" encoding="UTF-8" standalone="no"?>
<svg
   xmlns:dc="http://purl.org/dc/elements/1.1/"
   xmlns:cc="http://creativecommons.org/ns#"
   xmlns:rdf="http://www.w3.org/1999/02/22-rdf-syntax-ns#"
   xmlns:svg="http://www.w3.org/2000/svg"
   xmlns="http://www.w3.org/2000/svg"
   id="svg8"
   version="1.1"
   viewBox="0 0 50.270834 36.296638"
   height="36.296638mm"
   width="50.270832mm">
  <defs
     id="defs2" />
  <metadata
     id="metadata5">
    <rdf:RDF>
      <cc:Work
         rdf:about="">
        <dc:format>image/svg+xml</dc:format>
        <dc:type
           rdf:resource="http://purl.org/dc/dcmitype/StillImage" />
        <dc:title></dc:title>
      </cc:Work>
    </rdf:RDF>
  </metadata>
  <g
     transform="translate(-93.193966,-78.440054)"
     id="layer1">
    <g
       transform="translate(0.22678581,0.22678523)"
       id="g3971">
      <path
         id="path3973"
         d="m 112.88976,114.29577 c -3.78268,-0.73097 -7.444,-2.53103 -10.7909,-5.30528 -1.09414,-0.90693 -1.3963,-1.4424 -1.04963,-1.86012 0.16421,-0.19785 0.77727,-0.23958 3.51964,-0.23958 h 3.32079 l 6.2911,-6.28365 6.29109,-6.283653 h 1.64259 1.64259 l 0.24003,-0.464165 c 0.58333,-1.128034 1.98864,-1.782457 3.15387,-1.468693 1.37054,0.369044 2.41429,1.888013 2.18139,3.174582 -0.24359,1.345714 -1.52709,2.464018 -2.82798,2.464018 -0.88043,0 -1.9216,-0.603156 -2.39819,-1.389288 l -0.4214,-0.695076 -1.36874,-0.0051 -1.36874,-0.0051 -6.16378,6.162805 -6.16378,6.16282 -2.45687,0.0806 -2.45687,0.0806 1.06295,0.7619 c 1.40594,1.00775 3.51444,2.11841 5.1656,2.72101 1.27886,0.46673 3.99103,1.1843 4.07724,1.07874 0.0226,-0.0277 1.94022,-2.38911 4.26137,-5.24763 2.74637,-3.38217 4.51272,-5.41577 5.05763,-5.82282 1.89772,-1.41759 3.64698,-1.960006 7.6101,-2.35976 4.04469,-0.40798 5.27918,-0.782706 6.02387,-1.828512 0.54421,-0.764282 4.68482,-11.468119 4.68482,-12.110686 0,-0.390122 -0.11299,-0.687449 -0.339,-0.892079 -0.31963,-0.289408 -0.70823,-0.30954 -6.80653,-0.352608 l -6.46754,-0.04568 -1.20915,-1.258687 c -1.00285,-1.043939 -1.33815,-1.290417 -1.96526,-1.444675 -0.51998,-0.127909 -3.25121,-0.18599 -8.74607,-0.18599 h -7.98997 l -0.83481,-0.423032 c -0.45915,-0.232668 -1.29218,-0.595186 -1.85119,-0.805597 -0.9883,-0.371992 -1.15173,-0.382565 -5.914038,-0.382565 h -4.897657 l -0.10943,0.498218 c -0.06019,0.27402 -0.05885,0.835923 0.0032,1.248675 0.252953,1.689128 0.936766,3.043471 2.770805,5.487763 0.558696,0.744589 1.015809,1.497065 1.015809,1.67216 0,0.175096 -0.479067,0.82619 -1.064591,1.446877 -1.561845,1.655636 -2.119546,3.056877 -1.678427,4.217109 l 0.157134,0.413287 h 3.271693 3.271692 l 0.92139,-0.931111 c 1.15922,-1.171445 1.236,-1.707899 0.32983,-2.304562 -1.105,-0.727576 -1.528,-1.763608 -1.27365,-3.119443 0.14934,-0.796033 1.12131,-1.780105 1.98844,-2.013199 2.36628,-0.636082 4.37573,1.831618 3.26478,4.009281 -0.32895,0.644782 -0.93149,1.212307 -1.46786,1.382543 -0.24586,0.07803 -0.30895,0.250244 -0.30895,0.843221 0,0.725352 -0.0399,0.785031 -1.49965,2.244814 l -1.49965,1.499645 h -3.634435 c -3.445145,0 -3.656783,-0.01758 -4.063461,-0.337467 -0.784999,-0.61748 -1.112396,-1.510095 -1.029223,-2.806091 0.08747,-1.363 0.594567,-2.4198 1.789504,-3.729369 0.501525,-0.549639 0.732988,-0.925133 0.652086,-1.057845 -0.069,-0.113161 -0.516382,-0.749526 -0.994193,-1.414143 -2.078049,-2.890467 -2.8788,-5.617257 -2.281319,-7.768564 0.314709,-1.133159 0.106734,-1.093254 5.68399,-1.09061 5.613531,0.0026 6.261891,0.08533 8.214841,1.047443 l 1.1395,0.561368 7.50172,0.0012 c 4.43606,7.31e-4 7.92537,0.06996 8.53842,0.169424 1.62148,0.263085 2.48995,0.717054 3.49331,1.826036 l 0.8903,0.984029 6.40587,0.08056 c 0,0 3.81533,0.02073 5.93115,0.231609 0.25473,0.02539 0.80481,0.06688 1.14946,0.254565 0.88019,0.479307 1.21879,1.755571 1.10988,2.558532 -0.0986,0.726959 -4.38941,11.64706 -4.89201,12.450176 -0.6341,1.013215 -2.00361,1.85226 -3.60725,2.21003 -0.39734,0.0886 -1.84624,0.27466 -3.21978,0.41336 -3.96471,0.40038 -5.77152,0.9237 -7.35248,2.12955 -0.31685,0.24168 -2.55916,2.88116 -4.98291,5.86552 -2.42374,2.98435 -4.50063,5.46041 -4.61531,5.50235 -0.11467,0.0419 -0.86103,-0.0498 -1.65857,-0.20396 z m 14.58129,-18.199969 c 0.44392,-0.443915 0.42973,-1.395455 -0.0281,-1.882766 -0.80164,-0.85331 -2.22758,-0.248942 -2.22758,0.944132 0,0.829488 0.44099,1.26087 1.28895,1.26087 0.42966,0 0.75189,-0.107411 0.96672,-0.322236 z m -21.57121,-5.944213 c 0.53259,-0.431259 0.53259,-1.536571 0,-1.96783 -0.87041,-0.704821 -2.27443,-0.09744 -2.27443,0.983913 0,1.081362 1.40402,1.688739 2.27443,0.983917 z m -7.338181,15.035942 c -0.35743,-0.35743 -0.314207,-0.81364 0.104903,-1.10719 0.298935,-0.20938 0.971097,-0.25082 4.068948,-0.25082 h 3.71087 l 7.0073,-7.008683 7.0073,-7.008685 h 4.55231 c 3.89104,0 4.55231,-0.0343 4.55231,-0.236077 0,-0.366195 0.98361,-1.398619 1.56322,-1.640797 1.31558,-0.549681 2.87331,-0.01297 3.57238,1.230872 0.49107,0.873734 0.4355,2.253309 -0.12232,3.036691 -0.72872,1.023395 -2.47301,1.476019 -3.54729,0.920483 -0.54934,-0.284073 -1.46599,-1.300165 -1.46599,-1.625027 0,-0.201357 -0.62206,-0.236072 -4.23007,-0.236072 h -4.23006 l -7.08787,7.089245 -7.08788,7.08925 h -4.05744 c -3.473748,0 -4.093854,-0.0364 -4.310621,-0.25319 z M 133.31163,91.410393 c 0.32388,-0.396284 0.36323,-1.237353 0.0754,-1.612203 -0.53479,-0.696556 -1.35241,-0.7986 -1.99183,-0.2486 -1.00255,0.862362 -0.24525,2.506558 1.05841,2.297958 0.31682,-0.05069 0.70291,-0.247413 0.85799,-0.437155 z M 96.729502,102.34722 c -0.248527,-0.24852 -0.248527,-0.81486 0,-1.06338 0.140289,-0.14029 1.323134,-0.19334 4.310668,-0.19334 h 4.11732 l 6.67085,-6.672304 6.67085,-6.6723 -0.20641,-0.498318 c -0.5281,-1.274936 0.12553,-3.040028 1.33897,-3.615843 2.75854,-1.309017 5.43942,2.081611 3.44337,4.354987 -0.80422,0.915967 -2.02783,1.26487 -3.05984,0.872506 -0.35832,-0.136234 -0.90803,0.373315 -7.30043,6.767005 l -6.91293,6.914337 h -4.43954 c -3.238145,0 -4.491853,-0.0523 -4.632878,-0.19335 z M 121.86768,87.108928 c 0.15323,-0.153233 0.3251,-0.511083 0.38193,-0.795225 0.0869,-0.434282 0.0253,-0.594694 -0.38649,-1.006437 -0.62014,-0.620141 -1.33022,-0.655555 -1.89144,-0.09434 -0.56122,0.561221 -0.5258,1.271296 0.0943,1.891439 0.41175,0.411742 0.57216,0.473344 1.00644,0.386486 0.28414,-0.05682 0.64199,-0.228691 0.79522,-0.381924 z M 95.113421,98.947032 c -0.33195,-0.33195 -0.255125,-0.646404 0.106205,-0.973389 0.258214,-0.233683 0.810859,-0.266649 4.469546,-0.266649 h 4.174898 l 3.10306,-3.099996 3.10306,-3.099996 v -1.250224 c 0,-0.990703 -0.049,-1.250223 -0.23607,-1.250223 -0.36621,0 -1.39863,-0.983611 -1.64081,-1.563219 -0.30994,-0.741794 -0.26928,-1.731972 0.10092,-2.457612 1.02101,-2.001357 3.98097,-2.001357 5.00199,0 0.73823,1.44705 0.11824,3.27532 -1.31153,3.867553 l -0.46443,0.192373 v 1.552738 1.552739 l -3.50569,3.50297 -3.50568,3.502969 h -4.538769 c -3.911325,0 -4.465885,0.159221 -4.684072,-0.05898 z M 111.8022,87.138633 c 0.4217,-0.471952 0.45518,-0.869048 0.12681,-1.504057 -0.56237,-1.087494 -2.20621,-0.819677 -2.43438,0.396612 -0.26234,1.398346 1.35438,2.174228 2.30757,1.107445 z"
         style="fill:#b9e1e1;stroke-width:0.16111924" />
    </g>
  </g>
</svg>
